<svg width="262" height="140" viewBox="0 0 262 140" fill="none" xmlns="http://www.w3.org/2000/svg">
<g clip-path="url(#clip0_11102_205546)">
<rect width="262" height="140" rx="2" fill="#CBDDFF"/>
<path d="M28.0137 30.7979C28.0137 28.1594 30.1526 26.0205 32.7911 26.0205H228.95C231.588 26.0205 233.727 28.1594 233.727 30.7979V140.741C233.727 143.379 231.588 145.518 228.95 145.518H32.7911C30.1526 145.518 28.0137 143.379 28.0137 140.741V30.7979Z" fill="white"/>
<rect width="176.483" height="13.1231" transform="matrix(1 0.000181335 -0.000228743 1 42.502 58.1289)" fill="#ECEFF8"/>
<rect x="164.002" y="61.2852" width="15" height="7" rx="1.14008" fill="#CBDDFF"/>
<rect x="181.002" y="61.2852" width="7" height="7" rx="1.14008" fill="#CBDDFF"/>
<path d="M49.3398 64.7031L74.5974 64.7031" stroke="#181B34" stroke-width="1.0524"/>
<rect width="29.0153" height="13.2568" transform="matrix(1 0.000265096 -0.000156468 1 130.986 58)" fill="#00CA72"/>
<rect width="29.0153" height="13.2568" transform="matrix(1 0.000207204 -0.000200186 1 102.006 58)" fill="#6161FF"/>
<rect x="194.004" y="62.0742" width="20.1147" height="5.28637" rx="2.64319" fill="#CBDDFF"/>
<path d="M194.003 64.7174C194.004 63.2576 195.187 62.0745 196.647 62.0748L202.986 62.076L202.985 67.3624L196.646 67.3611C195.186 67.3608 194.003 66.1772 194.003 64.7174Z" fill="#6161FF"/>
<circle cx="90.4746" cy="64.7032" r="4.47269" fill="#CBDDFF"/>
<rect width="176.483" height="13.1231" transform="matrix(1 0.000181335 -0.000228743 1 42.502 73.1289)" fill="#ECEFF8"/>
<rect x="164.002" y="76.2852" width="15" height="7" rx="1.14008" fill="#CBDDFF"/>
<rect x="181.002" y="76.2852" width="7" height="7" rx="1.14008" fill="#CBDDFF"/>
<path d="M49.002 80H82.002" stroke="#181B34" stroke-width="1.0524"/>
<rect width="29.0153" height="13.2568" transform="matrix(1 0.000265096 -0.000156468 1 130.986 73)" fill="#FB275D"/>
<rect width="29.0153" height="13.2568" transform="matrix(1 0.000207204 -0.000200186 1 102.006 73)" fill="#CBDDFF"/>
<rect x="194.004" y="77.0742" width="20.1147" height="5.28637" rx="2.64319" fill="#CBDDFF"/>
<path d="M194.003 79.7174C194.004 78.2576 195.187 77.0745 196.647 77.0748L202.986 77.076L202.985 82.3624L196.646 82.3611C195.186 82.3608 194.003 81.1772 194.003 79.7174Z" fill="#6161FF"/>
<circle cx="90.4746" cy="79.7032" r="4.47269" fill="#CBDDFF"/>
<rect width="178.896" height="13.1231" transform="matrix(1 0.000181335 -0.000228743 1 40.0898 88.1289)" fill="#ECEFF8"/>
<rect x="164.002" y="91.2852" width="15" height="7" rx="1.14008" fill="#CBDDFF"/>
<rect x="181.002" y="91.2852" width="7" height="7" rx="1.14008" fill="#CBDDFF"/>
<path d="M49.002 95H81.002" stroke="#181B34" stroke-width="1.0524"/>
<rect width="29.0153" height="13.2568" transform="matrix(1 0.000265096 -0.000156468 1 130.986 88)" fill="#FFCC00"/>
<rect width="29.0153" height="13.2568" transform="matrix(1 0.000207204 -0.000200186 1 102.004 88)" fill="#579BFC"/>
<rect x="194.002" y="92.0742" width="20.1147" height="5.28637" rx="2.64319" fill="#CBDDFF"/>
<path d="M194.001 94.7174C194.002 93.2576 195.185 92.0745 196.645 92.0748L202.985 92.076L202.983 97.3624L196.644 97.3611C195.184 97.3608 194.001 96.1772 194.001 94.7174Z" fill="#6161FF"/>
<circle cx="90.4746" cy="94.7032" r="4.47269" fill="#CBDDFF"/>
<rect width="176.483" height="13.1231" transform="matrix(1 0.000181335 -0.000228743 1 42.502 103.129)" fill="#ECEFF8"/>
<rect x="164.002" y="106.285" width="15" height="7" rx="1.14008" fill="#CBDDFF"/>
<rect x="181.002" y="106.285" width="7" height="7" rx="1.14008" fill="#CBDDFF"/>
<path d="M49.002 110H76.002" stroke="#181B34" stroke-width="1.0524"/>
<rect width="29.0153" height="13.2568" transform="matrix(1 0.000265096 -0.000156468 1 130.986 103)" fill="#FFCC00"/>
<rect width="29.0153" height="13.2568" transform="matrix(1 0.000207204 -0.000200186 1 102.006 103)" fill="#579BFC"/>
<rect x="194.004" y="107.074" width="20.1147" height="5.28637" rx="2.64319" fill="#CBDDFF"/>
<path d="M194.003 109.717C194.004 108.258 195.187 107.074 196.647 107.075L202.986 107.076L202.985 112.362L196.646 112.361C195.186 112.361 194.003 111.177 194.003 109.717Z" fill="#6161FF"/>
<circle cx="90.4746" cy="109.703" r="4.47269" fill="#CBDDFF"/>
<path d="M39.8668 60.4925C39.867 59.0393 41.0452 57.8616 42.4983 57.8619L43.612 57.8621L43.6033 116L42.4893 116C41.0363 116 39.8587 114.821 39.8589 113.368L39.8668 60.4925Z" fill="#6161FF"/>
<path d="M39.8672 51H70.6498" stroke="#6161FF" stroke-width="1.82065"/>
<path d="M40.002 39H94.002" stroke="#CBDDFF" stroke-width="2.60994"/>
<mask id="mask0_11102_205546" style="mask-type:alpha" maskUnits="userSpaceOnUse" x="28" y="118" width="206" height="28">
<path d="M28.0049 122.777C28.0054 120.139 30.1448 118 32.7833 118.001L228.942 118.041C231.58 118.041 233.719 120.181 233.718 122.819L233.715 140.467C233.714 143.106 231.575 145.244 228.936 145.244L32.7777 145.204C30.1392 145.203 28.0008 143.064 28.0013 140.426L28.0049 122.777Z" fill="white"/>
</mask>
<g mask="url(#mask0_11102_205546)">
<rect width="176.483" height="13.1231" transform="matrix(1 0.000181335 -0.000228743 1 42.502 131.723)" fill="#ECEFF8"/>
<rect x="164.002" y="134.879" width="15" height="7" rx="1.14008" fill="#CBDDFF"/>
<rect x="181.002" y="134.879" width="7" height="7" rx="1.14008" fill="#CBDDFF"/>
<path d="M49.3398 138.297L74.5974 138.297" stroke="#181B34" stroke-width="1.0524"/>
<rect width="29.0153" height="13.2568" transform="matrix(1 0.000265096 -0.000156468 1 130.986 131.594)" fill="#00CA72"/>
<rect width="29.0153" height="13.2568" transform="matrix(1 0.000207204 -0.000200186 1 102.006 131.594)" fill="#6161FF"/>
<rect x="194.004" y="135.668" width="20.1147" height="5.28637" rx="2.64319" fill="#CBDDFF"/>
<path d="M194.003 138.311C194.004 136.851 195.187 135.668 196.647 135.669L202.986 135.67L202.985 140.956L196.646 140.955C195.186 140.955 194.003 139.771 194.003 138.311Z" fill="#6161FF"/>
<circle cx="90.4746" cy="138.297" r="4.47269" fill="#CBDDFF"/>
<path d="M39.8668 134.086C39.867 132.633 41.0452 131.455 42.4983 131.456L43.612 131.456L43.6033 189.594L42.4893 189.594C41.0363 189.593 39.8587 188.415 39.8589 186.962L39.8668 134.086Z" fill="#579BFC"/>
<path d="M40.002 124.594H82.002" stroke="#579BFC" stroke-width="1.82065"/>
</g>
<rect x="136.235" y="36.2335" width="35.7482" height="10.1478" rx="1.01531" stroke="#C3C6D4" stroke-width="0.466973"/>
<path d="M148.398 42.9047C148.105 42.9047 147.838 42.8368 147.597 42.701C147.356 42.5622 147.164 42.3706 147.022 42.1261C146.883 41.8786 146.814 41.601 146.814 41.2932C146.814 40.9853 146.883 40.7092 147.022 40.4647C147.164 40.2173 147.356 40.0256 147.597 39.8898C147.838 39.751 148.105 39.6816 148.398 39.6816C148.694 39.6816 148.963 39.751 149.204 39.8898C149.445 40.0256 149.636 40.2158 149.774 40.4602C149.913 40.7047 149.983 40.9823 149.983 41.2932C149.983 41.604 149.913 41.8817 149.774 42.1261C149.636 42.3706 149.445 42.5622 149.204 42.701C148.963 42.8368 148.694 42.9047 148.398 42.9047ZM148.398 42.5471C148.619 42.5471 148.816 42.4958 148.991 42.3932C149.169 42.2906 149.308 42.1442 149.408 41.9541C149.51 41.764 149.562 41.5436 149.562 41.2932C149.562 41.0397 149.51 40.8193 149.408 40.6322C149.308 40.4421 149.171 40.2957 148.996 40.1931C148.821 40.0905 148.622 40.0392 148.398 40.0392C148.175 40.0392 147.976 40.0905 147.801 40.1931C147.626 40.2957 147.487 40.4421 147.384 40.6322C147.285 40.8193 147.235 41.0397 147.235 41.2932C147.235 41.5436 147.285 41.764 147.384 41.9541C147.487 42.1442 147.626 42.2906 147.801 42.3932C147.979 42.4958 148.178 42.5471 148.398 42.5471ZM151.45 42.4928L152.22 40.3923H152.659L151.685 42.873H151.205L150.232 40.3923H150.676L151.45 42.4928ZM155.327 41.5376C155.327 41.6161 155.323 41.6991 155.314 41.7866H153.331C153.346 42.031 153.429 42.2227 153.58 42.3615C153.734 42.4973 153.92 42.5652 154.137 42.5652C154.315 42.5652 154.463 42.5245 154.58 42.443C154.701 42.3585 154.786 42.2468 154.834 42.108H155.278C155.211 42.3464 155.078 42.5411 154.879 42.692C154.68 42.8398 154.433 42.9138 154.137 42.9138C153.901 42.9138 153.69 42.861 153.503 42.7553C153.319 42.6497 153.174 42.5003 153.069 42.3072C152.963 42.111 152.91 41.8847 152.91 41.6282C152.91 41.3716 152.961 41.1468 153.064 40.9536C153.167 40.7605 153.31 40.6126 153.494 40.51C153.681 40.4044 153.895 40.3516 154.137 40.3516C154.372 40.3516 154.58 40.4029 154.762 40.5055C154.943 40.6081 155.081 40.7499 155.178 40.931C155.278 41.1091 155.327 41.3113 155.327 41.5376ZM154.902 41.4516C154.902 41.2947 154.867 41.1604 154.798 41.0487C154.728 40.934 154.633 40.848 154.513 40.7907C154.395 40.7303 154.264 40.7001 154.119 40.7001C153.911 40.7001 153.732 40.7665 153.585 40.8993C153.44 41.0321 153.357 41.2162 153.336 41.4516H154.902ZM156.283 40.7952C156.356 40.6534 156.458 40.5432 156.591 40.4647C156.727 40.3863 156.891 40.347 157.084 40.347V40.7726H156.976C156.514 40.7726 156.283 41.0231 156.283 41.524V42.873H155.871V40.3923H156.283V40.7952ZM158.483 42.4928L159.253 40.3923H159.692L158.719 42.873H158.239L157.266 40.3923H157.709L158.483 42.4928ZM160.31 39.9894C160.232 39.9894 160.165 39.9623 160.111 39.9079C160.057 39.8536 160.03 39.7872 160.03 39.7087C160.03 39.6303 160.057 39.5639 160.111 39.5096C160.165 39.4552 160.232 39.4281 160.31 39.4281C160.386 39.4281 160.449 39.4552 160.5 39.5096C160.555 39.5639 160.582 39.6303 160.582 39.7087C160.582 39.7872 160.555 39.8536 160.5 39.9079C160.449 39.9623 160.386 39.9894 160.31 39.9894ZM160.509 40.3923V42.873H160.097V40.3923H160.509ZM163.475 41.5376C163.475 41.6161 163.47 41.6991 163.461 41.7866H161.479C161.494 42.031 161.577 42.2227 161.728 42.3615C161.881 42.4973 162.067 42.5652 162.284 42.5652C162.462 42.5652 162.61 42.5245 162.728 42.443C162.849 42.3585 162.933 42.2468 162.982 42.108H163.425C163.359 42.3464 163.226 42.5411 163.027 42.692C162.828 42.8398 162.58 42.9138 162.284 42.9138C162.049 42.9138 161.838 42.861 161.651 42.7553C161.467 42.6497 161.322 42.5003 161.216 42.3072C161.11 42.111 161.058 41.8847 161.058 41.6282C161.058 41.3716 161.109 41.1468 161.212 40.9536C161.314 40.7605 161.457 40.6126 161.642 40.51C161.829 40.4044 162.043 40.3516 162.284 40.3516C162.52 40.3516 162.728 40.4029 162.909 40.5055C163.09 40.6081 163.229 40.7499 163.326 40.931C163.425 41.1091 163.475 41.3113 163.475 41.5376ZM163.049 41.4516C163.049 41.2947 163.015 41.1604 162.945 41.0487C162.876 40.934 162.781 40.848 162.66 40.7907C162.542 40.7303 162.411 40.7001 162.266 40.7001C162.058 40.7001 161.88 40.7665 161.732 40.8993C161.587 41.0321 161.504 41.2162 161.483 41.4516H163.049ZM167.323 40.3923L166.549 42.873H166.124L165.526 40.9038L164.929 42.873H164.503L163.724 40.3923H164.145L164.716 42.4747L165.332 40.3923H165.753L166.355 42.4792L166.916 40.3923H167.323Z" fill="#181B34"/>
<rect x="140.375" y="39.1211" width="1.8732" height="2.4976" stroke="#181B34" stroke-width="0.312199" stroke-linejoin="round"/>
<rect x="140.375" y="42.2432" width="1.8732" height="1.2488" stroke="#181B34" stroke-width="0.312199" stroke-linejoin="round"/>
<rect x="142.873" y="40.9941" width="1.8732" height="2.4976" stroke="#181B34" stroke-width="0.312199" stroke-linejoin="round"/>
<rect x="142.873" y="39.1211" width="1.8732" height="1.2488" stroke="#181B34" stroke-width="0.312199" stroke-linejoin="round"/>
<rect x="175.344" y="36" width="43.7079" height="10.6148" rx="1.2488" fill="#00C875"/>
<path d="M187.3 42.9047C187.007 42.9047 186.74 42.8368 186.499 42.701C186.257 42.5622 186.066 42.3706 185.924 42.1261C185.785 41.8786 185.716 41.601 185.716 41.2932C185.716 40.9853 185.785 40.7092 185.924 40.4647C186.066 40.2173 186.257 40.0256 186.499 39.8898C186.74 39.751 187.007 39.6816 187.3 39.6816C187.596 39.6816 187.864 39.751 188.106 39.8898C188.347 40.0256 188.537 40.2158 188.676 40.4602C188.815 40.7047 188.885 40.9823 188.885 41.2932C188.885 41.604 188.815 41.8817 188.676 42.1261C188.537 42.3706 188.347 42.5622 188.106 42.701C187.864 42.8368 187.596 42.9047 187.3 42.9047ZM187.3 42.5471C187.52 42.5471 187.718 42.4958 187.893 42.3932C188.071 42.2906 188.21 42.1442 188.31 41.9541C188.412 41.764 188.464 41.5436 188.464 41.2932C188.464 41.0397 188.412 40.8193 188.31 40.6322C188.21 40.4421 188.073 40.2957 187.898 40.1931C187.723 40.0905 187.523 40.0392 187.3 40.0392C187.077 40.0392 186.878 40.0905 186.703 40.1931C186.528 40.2957 186.389 40.4421 186.286 40.6322C186.186 40.8193 186.137 41.0397 186.137 41.2932C186.137 41.5436 186.186 41.764 186.286 41.9541C186.389 42.1442 186.528 42.2906 186.703 42.3932C186.881 42.4958 187.08 42.5471 187.3 42.5471ZM190.637 40.347C190.939 40.347 191.183 40.4391 191.37 40.6232C191.557 40.8043 191.651 41.0668 191.651 41.4109V42.873H191.244V41.4697C191.244 41.2222 191.182 41.0336 191.058 40.9038C190.934 40.7711 190.765 40.7047 190.551 40.7047C190.334 40.7047 190.16 40.7726 190.03 40.9084C189.904 41.0442 189.84 41.2419 189.84 41.5014V42.873H189.428V40.3923H189.84V40.7454C189.922 40.6187 190.032 40.5206 190.171 40.4512C190.313 40.3817 190.468 40.347 190.637 40.347ZM194.033 40.7318V42.194C194.033 42.3147 194.059 42.4007 194.11 42.452C194.162 42.5003 194.251 42.5245 194.377 42.5245H194.681V42.873H194.309C194.08 42.873 193.908 42.8202 193.793 42.7146C193.679 42.609 193.621 42.4354 193.621 42.194V40.7318H193.3V40.3923H193.621V39.7676H194.033V40.3923H194.681V40.7318H194.033ZM195.592 40.7952C195.664 40.6534 195.767 40.5432 195.9 40.4647C196.035 40.3863 196.2 40.347 196.393 40.347V40.7726H196.284C195.823 40.7726 195.592 41.0231 195.592 41.524V42.873H195.18V40.3923H195.592V40.7952ZM196.715 41.6236C196.715 41.3701 196.766 41.1483 196.869 40.9582C196.971 40.765 197.111 40.6156 197.29 40.51C197.471 40.4044 197.671 40.3516 197.892 40.3516C198.109 40.3516 198.298 40.3983 198.457 40.4919C198.617 40.5855 198.737 40.7032 198.815 40.845V40.3923H199.232V42.873H198.815V42.4113C198.734 42.5562 198.611 42.6769 198.448 42.7735C198.288 42.867 198.101 42.9138 197.887 42.9138C197.667 42.9138 197.468 42.8595 197.29 42.7508C197.111 42.6422 196.971 42.4898 196.869 42.2936C196.766 42.0974 196.715 41.8741 196.715 41.6236ZM198.815 41.6282C198.815 41.441 198.777 41.2781 198.702 41.1392C198.626 41.0004 198.524 40.8948 198.394 40.8224C198.267 40.7469 198.127 40.7092 197.973 40.7092C197.819 40.7092 197.679 40.7454 197.552 40.8178C197.425 40.8903 197.324 40.9959 197.249 41.1347C197.173 41.2735 197.136 41.4365 197.136 41.6236C197.136 41.8138 197.173 41.9797 197.249 42.1216C197.324 42.2604 197.425 42.3675 197.552 42.443C197.679 42.5154 197.819 42.5516 197.973 42.5516C198.127 42.5516 198.267 42.5154 198.394 42.443C198.524 42.3675 198.626 42.2604 198.702 42.1216C198.777 41.9797 198.815 41.8153 198.815 41.6282ZM199.774 41.6282C199.774 41.3716 199.825 41.1483 199.928 40.9582C200.03 40.765 200.172 40.6156 200.353 40.51C200.537 40.4044 200.747 40.3516 200.982 40.3516C201.287 40.3516 201.538 40.4255 201.734 40.5734C201.933 40.7213 202.064 40.9265 202.128 41.189H201.684C201.642 41.0381 201.559 40.9189 201.435 40.8314C201.314 40.7439 201.164 40.7001 200.982 40.7001C200.747 40.7001 200.557 40.7816 200.412 40.9446C200.267 41.1045 200.195 41.3324 200.195 41.6282C200.195 41.9269 200.267 42.1578 200.412 42.3208C200.557 42.4837 200.747 42.5652 200.982 42.5652C201.164 42.5652 201.314 42.523 201.435 42.4385C201.556 42.354 201.639 42.2332 201.684 42.0763H202.128C202.061 42.3298 201.929 42.5335 201.729 42.6874C201.53 42.8383 201.281 42.9138 200.982 42.9138C200.747 42.9138 200.537 42.861 200.353 42.7553C200.172 42.6497 200.03 42.5003 199.928 42.3072C199.825 42.114 199.774 41.8877 199.774 41.6282ZM204.063 42.873L203.089 41.7775V42.873H202.677V39.5231H203.089V41.4923L204.045 40.3923H204.619L203.452 41.6282L204.624 42.873H204.063Z" fill="white"/>
<path d="M216.068 40.619L214.437 42.2498L212.807 40.619" stroke="white" stroke-width="0.312199" stroke-linejoin="round"/>
</g>
<defs>
<clipPath id="clip0_11102_205546">
<rect width="262" height="140" rx="2" fill="white"/>
</clipPath>
</defs>
</svg>
